STARTFONT 2.1
FONT -FontForge-Bungee-Book-R-Normal--52-500-75-75-P-340-ISO10646-1
SIZE 50 75 75
FONTBOUNDINGBOX 42 61 0 -19
COMMENT "Generated by fontforge, http://fontforge.sourceforge.net"
COMMENT "Copyright 2008 The Bungee Project Authors (david@djr.com)"
STARTPROPERTIES 39
FOUNDRY "FontForge"
FAMILY_NAME "Bungee"
WEIGHT_NAME "Book"
SLANT "R"
SETWIDTH_NAME "Normal"
ADD_STYLE_NAME ""
PIXEL_SIZE 52
POINT_SIZE 500
RESOLUTION_X 75
RESOLUTION_Y 75
SPACING "P"
AVERAGE_WIDTH 340
CHARSET_REGISTRY "ISO10646"
CHARSET_ENCODING "1"
FONTNAME_REGISTRY ""
CHARSET_COLLECTIONS "ISO10646-1"
FONT_NAME "Bungee-Regular"
FACE_NAME "Bungee"
COPYRIGHT "Copyright 2008 The Bungee Project Authors (david@djr.com)"
FONT_VERSION "1.000;PS 1.0;hotconv 1.0.72;makeotf.lib2.5.5900"
FONT_ASCENT 45
FONT_DESCENT 7
UNDERLINE_POSITION 0
UNDERLINE_THICKNESS 0
X_HEIGHT 36
CAP_HEIGHT 36
RAW_ASCENT 860
RAW_DESCENT 140
NORM_SPACE 12
RELATIVE_WEIGHT 40
RELATIVE_SETWIDTH 50
SUPERSCRIPT_X 0
SUPERSCRIPT_Y 18
SUPERSCRIPT_SIZE 31
SUBSCRIPT_X 0
SUBSCRIPT_Y 3
SUBSCRIPT_SIZE 31
AVG_LOWERCASE_WIDTH 370
AVG_UPPERCASE_WIDTH 370
ENDPROPERTIES
CHARS 89
STARTCHAR space
ENCODING 32
SWIDTH 225 0
DWIDTH 12 0
BBX 1 1 0 0
BITMAP
00
ENDCHAR
STARTCHAR exclam
ENCODING 33
SWIDTH 424 0
DWIDTH 22 0
BBX 14 37 4 0
BITMAP
7FF8
FFFC
FFFC
FFFC
FFFC
FFFC
FFFC
7FFC
7FFC
7FFC
7FF8
7FF8
7FF8
7FF8
7FF8
7FF8
7FF8
7FF8
7FF8
7FF8
7FF8
7FF8
7FF8
3FF8
0000
0000
0000
7FF8
FFFC
FFFC
FFFC
FFFC
FFFC
FFFC
FFFC
FFFC
7FF8
ENDCHAR
STARTCHAR quotedbl
ENCODING 34
SWIDTH 646 0
DWIDTH 34 0
BBX 29 19 2 18
BITMAP
7FF87FF8
FFF87FF8
FFF87FF8
FFF87FF8
7FF87FF8
7FF87FF8
7FF87FF8
7FF87FF8
7FF87FF8
7FF87FF8
7FF87FF8
7FF87FF8
7FF87FF8
7FF87FF8
7FF87FF8
7FF87FF8
7FF87FF8
7FF87FF8
7FF07FF0
ENDCHAR
STARTCHAR numbersign
ENCODING 35
SWIDTH 750 0
DWIDTH 39 0
BBX 35 37 2 0
BITMAP
00FF81FF00
00FF81FF00
00FF81FF00
00FF81FF00
01FF83FF00
01FF83FF00
01FF03FE00
3FFFFFFFE0
3FFFFFFFE0
3FFFFFFFE0
3FFFFFFFE0
3FFFFFFFE0
3FFFFFFFE0
3FFFFFFFE0
3FFFFFFFE0
3FFFFFFFE0
03FE07FC00
03FE07FC00
07FE0FFC00
07FC0FFC00
07FC0FF800
FFFFFFFF80
FFFFFFFF80
FFFFFFFF80
FFFFFFFF80
FFFFFFFF80
FFFFFFFF80
FFFFFFFF80
FFFFFFFF80
FFFFFFFF80
0FF81FF000
1FF81FF000
1FF83FF000
1FF03FE000
1FF03FE000
1FF03FE000
1FF03FE000
ENDCHAR
STARTCHAR asterisk
ENCODING 42
SWIDTH 718 0
DWIDTH 37 0
BBX 32 30 3 7
BITMAP
001FF800
001FF800
001FF800
001FF800
001FF000
000FF000
180FF018
3E0FF078
3F8FF1FC
3FFFFFFC
7FFFFFFC
7FFFFFFE
7FFFFFFE
FFFFFFFE
FFFFFFFF
7FFFFFFE
03FFFF80
007FFC00
00FFFE00
01FFFF00
03FFFF80
03FFFFC0
07FEFFE0
0FFE7FF0
1FFC7FF0
0FFC3FF0
07F83FC0
01F81F80
00F00F00
00700C00
ENDCHAR
STARTCHAR plus
ENCODING 43
SWIDTH 734 0
DWIDTH 38 0
BBX 31 31 4 3
BITMAP
003FF000
003FF000
003FF000
003FF000
003FF000
003FF000
003FF000
003FF000
003FF000
003FF000
003FF000
FFFFFFFC
FFFFFFFE
FFFFFFFE
FFFFFFFE
FFFFFFFE
FFFFFFFE
FFFFFFFE
FFFFFFFE
FFFFFFFE
FFFFFFFC
003FF000
003FF000
003FF000
003FF000
003FF000
003FF000
003FF000
003FF000
003FF000
003FF000
ENDCHAR
STARTCHAR comma
ENCODING 44
SWIDTH 384 0
DWIDTH 20 0
BBX 14 19 3 -5
BITMAP
FFFC
FFFC
FFFC
FFFC
FFFC
FFFC
FFFC
FFFC
FFFC
FFFC
FFFC
01FC
01FC
7FFC
7FFC
7FF8
7FF8
7FF0
7FC0
ENDCHAR
STARTCHAR hyphen
ENCODING 45
SWIDTH 420 0
DWIDTH 22 0
BBX 18 11 2 13
BITMAP
FFFF80
FFFFC0
FFFFC0
FFFFC0
FFFFC0
FFFFC0
FFFFC0
FFFFC0
FFFFC0
FFFFC0
FFFF80
ENDCHAR
STARTCHAR period
ENCODING 46
SWIDTH 384 0
DWIDTH 20 0
BBX 14 14 3 0
BITMAP
FFFC
FFFC
FFFC
FFFC
FFFC
FFFC
FFFC
FFFC
FFFC
FFFC
FFFC
FFFC
FFFC
FFFC
ENDCHAR
STARTCHAR slash
ENCODING 47
SWIDTH 347 0
DWIDTH 18 0
BBX 18 47 0 -5
BITMAP
01FFC0
01FFC0
01FFC0
03FFC0
03FFC0
03FF80
03FF80
03FF80
03FF80
07FF80
07FF80
07FF80
07FF00
07FF00
07FF00
07FF00
0FFF00
0FFF00
0FFF00
0FFE00
0FFE00
0FFE00
0FFE00
1FFE00
1FFE00
1FFC00
1FFC00
1FFC00
1FFC00
1FFC00
3FFC00
3FFC00
3FF800
3FF800
3FF800
3FF800
3FF800
7FF800
7FF800
7FF000
7FF000
7FF000
7FF000
7FF000
FFF000
FFF000
7FE000
ENDCHAR
STARTCHAR zero
ENCODING 48
SWIDTH 727 0
DWIDTH 38 0
BBX 32 39 3 -1
BITMAP
007FFC00
03FFFFC0
0FFFFFF0
1FFFFFF8
3FFFFFFC
7FFFFFFE
7FFFFFFE
FFFFFFFE
FFFFFFFF
FFFFFFFF
FFF81FFF
FFF00FFF
FFF00FFF
FFF00FFF
FFF00FFF
FFF00FFF
FFF00FFF
FFF00FFF
FFF00FFF
FFF00FFF
FFF00FFF
FFF00FFF
FFF00FFF
FFF00FFF
FFF00FFF
FFF00FFF
FFF00FFF
FFF00FFF
FFF81FFF
FFFFFFFF
FFFFFFFF
FFFFFFFE
7FFFFFFE
7FFFFFFE
3FFFFFFC
1FFFFFF8
0FFFFFF0
03FFFFC0
007FFC00
ENDCHAR
STARTCHAR one
ENCODING 49
SWIDTH 601 0
DWIDTH 31 0
BBX 27 37 2 0
BITMAP
3FFFF000
3FFFF000
3FFFF000
3FFFF000
3FFFF000
3FFFF000
3FFFF000
3FFFF000
3FFFF000
3FFFF000
00FFF000
00FFF000
00FFF000
00FFF000
00FFF000
00FFF000
00FFF000
00FFF000
00FFF000
00FFF000
00FFF000
00FFF000
00FFF000
00FFF000
00FFF000
00FFF000
00FFF000
7FFFFFE0
FFFFFFE0
FFFFFFE0
FFFFFFE0
FFFFFFE0
FFFFFFE0
FFFFFFE0
FFFFFFE0
7FFFFFE0
7FFFFFE0
ENDCHAR
STARTCHAR two
ENCODING 50
SWIDTH 639 0
DWIDTH 33 0
BBX 29 37 2 0
BITMAP
3FFFFE00
3FFFFF80
3FFFFFC0
3FFFFFE0
3FFFFFF0
3FFFFFF0
3FFFFFF0
3FFFFFF0
3FFFFFF0
3FFFFFF0
0000FFF0
00007FF0
0000FFF0
0003FFF0
001FFFF0
00FFFFF0
07FFFFF0
1FFFFFE0
3FFFFFE0
3FFFFFC0
7FFFFF00
7FFFFC00
FFFFE000
FFFF0000
FFF80000
FFF00000
FFF00000
FFFFFFF0
FFFFFFF8
FFFFFFF8
FFFFFFF8
FFFFFFF8
FFFFFFF8
FFFFFFF8
FFFFFFF8
FFFFFFF8
FFFFFFF0
ENDCHAR
STARTCHAR three
ENCODING 51
SWIDTH 637 0
DWIDTH 33 0
BBX 28 37 3 0
BITMAP
FFFFF000
FFFFFC00
FFFFFE00
FFFFFE00
FFFFFF00
FFFFFF00
FFFFFF00
FFFFFF00
FFFFFF00
FFFFFF00
0007FF00
0007FF00
0007FF00
0007FF00
0FFFFE00
0FFFFE00
0FFFFE00
0FFFFFC0
0FFFFFE0
0FFFFFE0
0FFFFFF0
0FFFFFF0
0FFFFFF0
0000FFF0
0000FFF0
0000FFF0
0000FFF0
FFFFFFF0
FFFFFFF0
FFFFFFF0
FFFFFFF0
FFFFFFF0
FFFFFFE0
FFFFFFE0
FFFFFFC0
FFFFFF00
FFFFFC00
ENDCHAR
STARTCHAR four
ENCODING 52
SWIDTH 709 0
DWIDTH 37 0
BBX 30 37 3 0
BITMAP
7FF01FFC
FFF01FFC
FFF01FFC
FFF01FFC
FFF01FFC
FFF01FFC
FFF01FFC
FFF01FFC
FFF01FFC
FFF01FFC
FFF01FFC
FFF01FFC
FFF01FFC
FFF01FFC
FFF01FFC
FFF01FFC
FFF01FFC
FFFFFFFC
FFFFFFFC
FFFFFFFC
FFFFFFFC
FFFFFFFC
7FFFFFFC
7FFFFFFC
7FFFFFFC
3FFFFFFC
1FFFFFFC
07FFFFFC
00001FFC
00001FFC
00001FFC
00001FFC
00001FFC
00001FFC
00001FFC
00001FFC
00001FFC
ENDCHAR
STARTCHAR five
ENCODING 53
SWIDTH 647 0
DWIDTH 34 0
BBX 28 37 3 0
BITMAP
7FFFFFC0
FFFFFFE0
FFFFFFE0
FFFFFFE0
FFFFFFE0
FFFFFFE0
FFFFFFE0
FFFFFFE0
FFFFFFE0
FFFFFFC0
FFF00000
FFF00000
FFF00000
FFFFFE00
FFFFFF80
FFFFFFC0
FFFFFFE0
FFFFFFF0
FFFFFFF0
FFFFFFF0
FFFFFFF0
FFFFFFF0
7FFFFFF0
0000FFF0
00007FF0
00007FF0
0000FFF0
FFFFFFF0
FFFFFFF0
FFFFFFF0
FFFFFFF0
FFFFFFF0
FFFFFFE0
FFFFFFE0
FFFFFFC0
FFFFFF00
FFFFFC00
ENDCHAR
STARTCHAR six
ENCODING 54
SWIDTH 693 0
DWIDTH 36 0
BBX 31 38 3 -1
BITMAP
00FFFFC0
07FFFFE0
1FFFFFE0
3FFFFFE0
3FFFFFE0
7FFFFFE0
7FFFFFE0
FFFFFFE0
FFFFFFE0
FFFFFFC0
FFF80000
FFF00000
FFF00000
FFF7FF00
FFFFFFE0
FFFFFFF0
FFFFFFF8
FFFFFFFC
FFFFFFFC
FFFFFFFC
FFFFFFFC
FFFFFFFE
FFF83FFE
FFF01FFE
FFF01FFE
FFF01FFE
FFF01FFE
FFF01FFE
FFF83FFE
FFFFFFFC
FFFFFFFC
7FFFFFFC
7FFFFFFC
7FFFFFF8
3FFFFFF0
1FFFFFE0
07FFFF80
007FFC00
ENDCHAR
STARTCHAR seven
ENCODING 55
SWIDTH 627 0
DWIDTH 33 0
BBX 28 37 2 0
BITMAP
FFFFFFF0
FFFFFFF0
FFFFFFF0
FFFFFFF0
FFFFFFF0
FFFFFFF0
FFFFFFF0
FFFFFFF0
FFFFFFF0
FFFFFFF0
0000FFF0
0000FFF0
0000FFF0
0000FFF0
0000FFF0
0007FFF0
003FFFF0
00FFFFF0
03FFFFF0
07FFFFE0
07FFFFE0
0FFFFFC0
0FFFFF80
0FFFFF00
0FFFFC00
0FFFC000
0FFF0000
0FFF0000
0FFF0000
0FFF0000
0FFF0000
0FFF0000
0FFF0000
0FFF0000
0FFF0000
0FFF0000
0FFF0000
ENDCHAR
STARTCHAR eight
ENCODING 56
SWIDTH 711 0
DWIDTH 37 0
BBX 33 39 2 -1
BITMAP
003FFE0000
01FFFFC000
07FFFFF000
0FFFFFF800
0FFFFFF800
1FFFFFFC00
1FFFFFFC00
1FFFFFFC00
1FFFFFFC00
1FFC1FFC00
1FF80FFC00
1FF80FFC00
1FF80FFC00
1FF80FFC00
0FFC1FF800
0FFFFFF800
03FFFFE000
0FFFFFF800
1FFFFFFC00
3FFFFFFE00
7FFFFFFF00
7FFFFFFF00
7FFFFFFF00
FFF80FFF00
FFF007FF80
FFF007FF80
FFF007FF80
FFF007FF80
FFF007FF80
FFF80FFF80
FFFFFFFF80
7FFFFFFF00
7FFFFFFF00
7FFFFFFF00
3FFFFFFE00
1FFFFFFC00
0FFFFFF800
03FFFFE000
003FFE0000
ENDCHAR
STARTCHAR nine
ENCODING 57
SWIDTH 693 0
DWIDTH 36 0
BBX 31 38 2 0
BITMAP
007FFC00
03FFFFC0
0FFFFFE0
1FFFFFF8
3FFFFFFC
7FFFFFFC
7FFFFFFC
7FFFFFFE
7FFFFFFE
FFF83FFE
FFF01FFE
FFF01FFE
FFF01FFE
FFF01FFE
FFF01FFE
FFF81FFE
FFFFFFFE
7FFFFFFE
7FFFFFFE
7FFFFFFE
7FFFFFFE
3FFFFFFE
1FFFFFFE
0FFFFFFE
01FFDFFE
00001FFE
00001FFE
00003FFE
07FFFFFE
0FFFFFFE
0FFFFFFE
0FFFFFFC
0FFFFFFC
0FFFFFF8
0FFFFFF8
0FFFFFF0
0FFFFFC0
07FFFE00
ENDCHAR
STARTCHAR colon
ENCODING 58
SWIDTH 384 0
DWIDTH 20 0
BBX 14 32 3 0
BITMAP
FFFC
FFFC
FFFC
FFFC
FFFC
FFFC
FFFC
FFFC
FFFC
FFFC
FFFC
FFFC
FFFC
FFFC
0000
0000
0000
0000
FFFC
FFFC
FFFC
FFFC
FFFC
FFFC
FFFC
FFFC
FFFC
FFFC
FFFC
FFFC
FFFC
FFFC
ENDCHAR
STARTCHAR semicolon
ENCODING 59
SWIDTH 384 0
DWIDTH 20 0
BBX 14 37 3 -5
BITMAP
FFFC
FFFC
FFFC
FFFC
FFFC
FFFC
FFFC
FFFC
FFFC
FFFC
FFFC
FFFC
FFFC
FFFC
0000
0000
0000
0000
FFFC
FFFC
FFFC
FFFC
FFFC
FFFC
FFFC
FFFC
FFFC
FFFC
FFFC
01FC
01FC
7FFC
7FFC
7FF8
7FF8
7FF0
7FC0
ENDCHAR
STARTCHAR less
ENCODING 60
SWIDTH 714 0
DWIDTH 37 0
BBX 28 31 4 3
BITMAP
000000F0
000007F0
00007FF0
0003FFF0
003FFFF0
01FFFFF0
0FFFFFF0
1FFFFFF0
7FFFFFF0
7FFFFFF0
7FFFFFC0
FFFFFE00
FFFFE000
FFFE0000
FFF00000
FFE00000
FFF00000
FFFF0000
FFFFE000
FFFFFE00
7FFFFFE0
7FFFFFF0
3FFFFFF0
1FFFFFF0
07FFFFF0
01FFFFF0
001FFFF0
0001FFF0
00003FF0
000007F0
00000070
ENDCHAR
STARTCHAR equal
ENCODING 61
SWIDTH 734 0
DWIDTH 38 0
BBX 31 25 4 6
BITMAP
FFFFFFFC
FFFFFFFE
FFFFFFFE
FFFFFFFE
FFFFFFFE
FFFFFFFE
FFFFFFFE
FFFFFFFE
FFFFFFFE
FFFFFFFC
00000000
00000000
00000000
00000000
00000000
FFFFFFFC
FFFFFFFE
FFFFFFFE
FFFFFFFE
FFFFFFFE
FFFFFFFE
FFFFFFFE
FFFFFFFE
FFFFFFFE
FFFFFFFC
ENDCHAR
STARTCHAR greater
ENCODING 62
SWIDTH 714 0
DWIDTH 37 0
BBX 28 31 5 3
BITMAP
F0000000
FE000000
FFE00000
FFFC0000
FFFFC000
FFFFF800
FFFFFF00
FFFFFFC0
FFFFFFE0
FFFFFFE0
3FFFFFF0
07FFFFF0
007FFFF0
0007FFF0
00007FF0
00007FF0
0000FFF0
000FFFF0
007FFFF0
07FFFFF0
7FFFFFF0
FFFFFFE0
FFFFFFC0
FFFFFF80
FFFFFF00
FFFFF800
FFFF8000
FFFC0000
FFC00000
FE000000
E0000000
ENDCHAR
STARTCHAR question
ENCODING 63
SWIDTH 656 0
DWIDTH 34 0
BBX 30 37 2 0
BITMAP
7FFFFE00
FFFFFFC0
FFFFFFE0
FFFFFFF0
FFFFFFF8
FFFFFFF8
FFFFFFF8
FFFFFFFC
FFFFFFFC
7FFFFFFC
00003FFC
00003FFC
00003FFC
0003FFFC
01FFFFFC
07FFFFFC
0FFFFFFC
07FFFFF8
07FFFFF8
07FFFFF8
07FFFFF0
07FFFFE0
07FFFF80
03FFF000
03F80000
00000000
00000000
07FF8000
0FFFC000
0FFFC000
0FFFC000
0FFFC000
0FFFC000
0FFFC000
0FFFC000
07FFC000
07FF8000
ENDCHAR
STARTCHAR at
ENCODING 64
SWIDTH 867 0
DWIDTH 45 0
BBX 39 47 3 -5
BITMAP
000FFFE000
00FFFFFE00
03FFFFFF80
0FFFFFFFE0
1FFFFFFFF0
3FF8003FF8
7F800003FC
7F000001FC
7E000000FC
FC0000007E
FC0000007E
F80000003E
F807FFFC3E
F81FFFFE3E
F83FFFFE3E
F87FFFFE3E
F87FFFFE3E
F87FFFFE3E
F8FFFFFE3E
F8FF83FE3E
F8FF83FE3E
F8FF83FE3E
F8FF83FE3E
F8FF83FE3E
F8FF83FE3E
F8FF83FE3E
F8FF83FE3E
F8FF83FE3E
F8FF83FE3E
F8FF83FE7E
F8FFFFFE7E
F87FFFFFFC
F87FFFFFFC
F87FFFFFF8
F83FFFFFF0
F81FFFFFE0
FC07FFFF00
FC00000000
7E00000000
7F00000000
7F80000000
3FF8000000
1FFFFFFE00
0FFFFFFE00
03FFFFFE00
00FFFFFE00
000FFFFE00
ENDCHAR
STARTCHAR A
ENCODING 65
SWIDTH 730 0
DWIDTH 38 0
BBX 32 37 3 0
BITMAP
01FFFF80
03FFFFC0
03FFFFC0
03FFFFC0
07FFFFE0
07FFFFE0
0FFFFFE0
0FFFFFF0
0FFFFFF0
1FFFFFF8
1FFC7FF8
1FFC3FF8
3FFC3FFC
3FF83FFC
7FF81FFE
7FF81FFE
7FF01FFE
FFF01FFF
FFF00FFF
FFFFFFFF
FFFFFFFF
FFFFFFFF
FFFFFFFF
FFFFFFFF
FFFFFFFF
FFFFFFFF
FFFFFFFF
FFFFFFFF
FFE00FFF
FFE00FFF
FFE00FFF
FFE00FFF
FFE00FFF
FFE00FFF
FFE00FFF
FFE00FFF
FFE007FF
ENDCHAR
STARTCHAR B
ENCODING 66
SWIDTH 725 0
DWIDTH 38 0
BBX 32 37 4 0
BITMAP
FFFFFE00
FFFFFF80
FFFFFFC0
FFFFFFE0
FFFFFFE0
FFFFFFF0
FFFFFFF0
FFFFFFF0
FFFFFFF0
FFE07FF0
FFE03FF0
FFE03FF0
FFE03FF0
FFE07FE0
FFFFFFE0
FFFFFF80
FFFFFFF0
FFFFFFFC
FFFFFFFC
FFFFFFFE
FFFFFFFE
FFFFFFFE
FFE00FFE
FFE00FFF
FFE00FFF
FFE00FFF
FFE00FFF
FFE00FFF
FFFFFFFF
FFFFFFFE
FFFFFFFE
FFFFFFFE
FFFFFFFE
FFFFFFFC
FFFFFFF8
FFFFFFF0
FFFFFFC0
ENDCHAR
STARTCHAR C
ENCODING 67
SWIDTH 628 0
DWIDTH 33 0
BBX 27 37 3 0
BITMAP
00FFFFE0
07FFFFE0
1FFFFFE0
3FFFFFE0
7FFFFFE0
7FFFFFE0
7FFFFFE0
FFFFFFE0
FFFFFFE0
FFFFFFE0
FFF80000
FFF00000
FFF00000
FFF00000
FFF00000
FFF00000
FFF00000
FFF00000
FFF00000
FFF00000
FFF00000
FFF00000
FFF00000
FFF00000
FFF00000
FFF00000
FFF80000
FFFFFFE0
FFFFFFE0
FFFFFFE0
7FFFFFE0
7FFFFFE0
7FFFFFE0
3FFFFFE0
1FFFFFE0
07FFFFE0
00FFFFE0
ENDCHAR
STARTCHAR D
ENCODING 68
SWIDTH 746 0
DWIDTH 39 0
BBX 32 37 4 0
BITMAP
FFFFFF00
FFFFFFE0
FFFFFFF8
FFFFFFFC
FFFFFFFC
FFFFFFFE
FFFFFFFE
FFFFFFFE
FFFFFFFF
FFFFFFFF
FFE01FFF
FFE00FFF
FFE00FFF
FFE00FFF
FFE00FFF
FFE00FFF
FFE00FFF
FFE00FFF
FFE00FFF
FFE00FFF
FFE00FFF
FFE00FFF
FFE00FFF
FFE00FFF
FFE00FFF
FFE00FFF
FFE01FFF
FFFFFFFF
FFFFFFFF
FFFFFFFE
FFFFFFFE
FFFFFFFE
FFFFFFFC
FFFFFFFC
FFFFFFF8
FFFFFFE0
FFFFFF00
ENDCHAR
STARTCHAR E
ENCODING 69
SWIDTH 654 0
DWIDTH 34 0
BBX 27 37 4 0
BITMAP
FFFFFFE0
FFFFFFE0
FFFFFFE0
FFFFFFE0
FFFFFFE0
FFFFFFE0
FFFFFFE0
FFFFFFE0
FFFFFFE0
FFFFFFE0
FFE00000
FFE00000
FFE00000
FFE00000
FFFFFE00
FFFFFE00
FFFFFE00
FFFFFE00
FFFFFE00
FFFFFE00
FFFFFE00
FFFFFE00
FFFFFE00
FFE00000
FFE00000
FFE00000
FFE00000
FFFFFFE0
FFFFFFE0
FFFFFFE0
FFFFFFE0
FFFFFFE0
FFFFFFE0
FFFFFFE0
FFFFFFE0
FFFFFFE0
FFFFFFE0
ENDCHAR
STARTCHAR F
ENCODING 70
SWIDTH 618 0
DWIDTH 32 0
BBX 27 37 4 0
BITMAP
FFFFFFC0
FFFFFFE0
FFFFFFE0
FFFFFFE0
FFFFFFE0
FFFFFFE0
FFFFFFE0
FFFFFFE0
FFFFFFE0
FFFFFFC0
FFE00000
FFE00000
FFE00000
FFE00000
FFE00000
FFFFFC00
FFFFFC00
FFFFFC00
FFFFFC00
FFFFFC00
FFFFFC00
FFFFFC00
FFFFFC00
FFFFFC00
FFFFFC00
FFE00000
FFE00000
FFE00000
FFE00000
FFE00000
FFE00000
FFE00000
FFE00000
FFE00000
FFE00000
FFE00000
FFE00000
ENDCHAR
STARTCHAR G
ENCODING 71
SWIDTH 708 0
DWIDTH 37 0
BBX 31 37 3 0
BITMAP
00FFFFE0
07FFFFF0
1FFFFFF0
3FFFFFF0
7FFFFFF0
7FFFFFF0
7FFFFFF0
FFFFFFF0
FFFFFFF0
FFFFFFE0
FFF80000
FFF00000
FFF00000
FFF00000
FFF00000
FFF00000
FFF00000
FFF007FC
FFF01FFE
FFF01FFE
FFF01FFE
FFF01FFE
FFF01FFE
FFF01FFE
FFF01FFE
FFF01FFE
FFF81FFE
FFFFFFFE
FFFFFFFE
FFFFFFFE
7FFFFFFE
7FFFFFFE
7FFFFFFE
3FFFFFFE
1FFFFFFE
07FFFFFE
00FFFFFE
ENDCHAR
STARTCHAR H
ENCODING 72
SWIDTH 759 0
DWIDTH 39 0
BBX 32 37 4 0
BITMAP
FFE00FFE
FFE00FFF
FFE00FFF
FFE00FFF
FFE00FFF
FFE00FFF
FFE00FFF
FFE00FFF
FFE00FFF
FFE00FFF
FFE00FFF
FFE00FFF
FFE00FFF
FFFFFFFF
FFFFFFFF
FFFFFFFF
FFFFFFFF
FFFFFFFF
FFFFFFFF
FFFFFFFF
FFFFFFFF
FFFFFFFF
FFFFFFFF
FFFFFFFF
FFE00FFF
FFE00FFF
FFE00FFF
FFE00FFF
FFE00FFF
FFE00FFF
FFE00FFF
FFE00FFF
FFE00FFF
FFE00FFF
FFE00FFF
FFE00FFF
FFE00FFE
ENDCHAR
STARTCHAR I
ENCODING 73
SWIDTH 605 0
DWIDTH 31 0
BBX 26 37 3 0
BITMAP
FFFFFF80
FFFFFFC0
FFFFFFC0
FFFFFFC0
FFFFFFC0
FFFFFFC0
FFFFFFC0
FFFFFFC0
FFFFFFC0
FFFFFF80
01FFE000
01FFE000
01FFE000
01FFE000
01FFE000
01FFE000
01FFE000
01FFE000
01FFE000
01FFE000
01FFE000
01FFE000
01FFE000
01FFE000
01FFE000
01FFE000
01FFE000
FFFFFF80
FFFFFFC0
FFFFFFC0
FFFFFFC0
FFFFFFC0
FFFFFFC0
FFFFFFC0
FFFFFFC0
FFFFFFC0
FFFFFF80
ENDCHAR
STARTCHAR J
ENCODING 74
SWIDTH 688 0
DWIDTH 36 0
BBX 30 38 2 -1
BITMAP
00001FFC
00001FFC
00001FFC
00001FFC
00001FFC
00001FFC
00001FFC
00001FFC
00001FFC
00001FFC
00001FFC
00001FFC
00001FFC
00001FFC
00001FFC
00001FFC
00001FFC
7FC01FFC
FFE01FFC
FFE01FFC
FFE01FFC
FFE01FFC
FFE01FFC
FFE01FFC
FFE01FFC
FFE01FFC
FFF03FFC
FFF03FFC
FFFFFFFC
FFFFFFFC
FFFFFFFC
7FFFFFFC
7FFFFFF8
3FFFFFF8
3FFFFFF0
0FFFFFE0
03FFFF80
007FF800
ENDCHAR
STARTCHAR K
ENCODING 75
SWIDTH 746 0
DWIDTH 39 0
BBX 32 37 4 0
BITMAP
FFE00FFE
FFE01FFE
FFE03FFC
FFE03FFC
FFE03FF8
FFE07FF8
FFE07FF8
FFE0FFF0
FFE0FFF0
FFE1FFE0
FFE1FFE0
FFE1FFC0
FFE3FFC0
FFE3FFC0
FFFFFFF0
FFFFFFFC
FFFFFFFC
FFFFFFFE
FFFFFFFE
FFFFFFFF
FFFFFFFF
FFFFFFFF
FFFFFFFF
FFFFFFFF
FFE00FFF
FFE00FFF
FFE00FFF
FFE00FFF
FFE00FFF
FFE00FFF
FFE00FFF
FFE00FFF
FFE00FFF
FFE00FFF
FFE00FFF
FFE00FFF
FFE00FFE
ENDCHAR
STARTCHAR L
ENCODING 76
SWIDTH 695 0
DWIDTH 36 0
BBX 30 37 4 0
BITMAP
FFE00000
FFE00000
FFE00000
FFE00000
FFE00000
FFE00000
FFE00000
FFE00000
FFE00000
FFE00000
FFE00000
FFE00000
FFE00000
FFE00000
FFE00000
FFE00000
FFE00000
FFE01FF8
FFE01FFC
FFE01FFC
FFE01FFC
FFE01FFC
FFE01FFC
FFE01FFC
FFE01FFC
FFE01FFC
FFE01FFC
FFFFFFFC
FFFFFFFC
FFFFFFFC
FFFFFFFC
FFFFFFFC
FFFFFFFC
FFFFFFFC
FFFFFFFC
FFFFFFFC
FFFFFFF8
ENDCHAR
STARTCHAR M
ENCODING 77
SWIDTH 849 0
DWIDTH 44 0
BBX 37 37 4 0
BITMAP
FFE0007FF0
FFF000FFF8
FFF801FFF8
FFF801FFF8
FFFC03FFF8
FFFE07FFF8
FFFE07FFF8
FFFF0FFFF8
FFFF0FFFF8
FFFF9FFFF8
FFFFFFFFF8
FFFFFFFFF8
FFFFFFFFF8
FFFFFFFFF8
FFFFFFFFF8
FFFFFFFFF8
FFFFFFFFF8
FFEFFF7FF8
FFEFFF7FF8
FFE7FE7FF8
FFE7FE7FF8
FFE3FC7FF8
FFE3FC7FF8
FFE1F87FF8
FFE0007FF8
FFE0007FF8
FFE0007FF8
FFE0007FF8
FFE0007FF8
FFE0007FF8
FFE0007FF8
FFE0007FF8
FFE0007FF8
FFE0007FF8
FFE0007FF8
FFE0007FF8
FFE0007FF0
ENDCHAR
STARTCHAR N
ENCODING 78
SWIDTH 753 0
DWIDTH 39 0
BBX 32 37 4 0
BITMAP
FF800FFE
FFC00FFF
FFE00FFF
FFF00FFF
FFF80FFF
FFF80FFF
FFFC0FFF
FFFE0FFF
FFFF0FFF
FFFF8FFF
FFFFCFFF
FFFFEFFF
FFFFFFFF
FFFFFFFF
FFFFFFFF
FFFFFFFF
FFFFFFFF
FFFFFFFF
FFFFFFFF
FFEFFFFF
FFE7FFFF
FFE3FFFF
FFE1FFFF
FFE1FFFF
FFE0FFFF
FFE07FFF
FFE03FFF
FFE01FFF
FFE00FFF
FFE00FFF
FFE00FFF
FFE00FFF
FFE00FFF
FFE00FFF
FFE00FFF
FFE00FFF
FFE00FFE
ENDCHAR
STARTCHAR O
ENCODING 79
SWIDTH 737 0
DWIDTH 38 0
BBX 32 39 3 -1
BITMAP
003FFE00
03FFFFC0
0FFFFFF0
1FFFFFFC
3FFFFFFE
7FFFFFFE
7FFFFFFF
FFFFFFFF
FFFFFFFF
FFFFFFFF
FFF81FFF
FFF00FFF
FFF007FF
FFF007FF
FFF007FF
FFF007FF
FFF007FF
FFF007FF
FFF007FF
FFF007FF
FFF007FF
FFF007FF
FFF007FF
FFF007FF
FFF007FF
FFF007FF
FFF007FF
FFF00FFF
FFF81FFF
FFFFFFFF
FFFFFFFF
FFFFFFFF
7FFFFFFF
7FFFFFFE
3FFFFFFE
1FFFFFFC
0FFFFFF8
03FFFFE0
003FFE00
ENDCHAR
STARTCHAR P
ENCODING 80
SWIDTH 682 0
DWIDTH 35 0
BBX 30 37 4 0
BITMAP
FFFFFE00
FFFFFF80
FFFFFFE0
FFFFFFF0
FFFFFFF0
FFFFFFF8
FFFFFFF8
FFFFFFF8
FFFFFFFC
FFFFFFFC
FFE03FFC
FFE03FFC
FFE03FFC
FFE03FFC
FFE03FFC
FFE03FFC
FFE03FFC
FFFFFFFC
FFFFFFF8
FFFFFFF8
FFFFFFF8
FFFFFFF0
FFFFFFF0
FFFFFFE0
FFFFFF80
FFFFFE00
FFE00000
FFE00000
FFE00000
FFE00000
FFE00000
FFE00000
FFE00000
FFE00000
FFE00000
FFE00000
FFE00000
ENDCHAR
STARTCHAR Q
ENCODING 81
SWIDTH 737 0
DWIDTH 38 0
BBX 32 43 3 -5
BITMAP
003FFE00
03FFFFC0
0FFFFFF0
1FFFFFFC
3FFFFFFE
7FFFFFFE
7FFFFFFF
FFFFFFFF
FFFFFFFF
FFFFFFFF
FFF81FFF
FFF00FFF
FFF007FF
FFF007FF
FFF007FF
FFF007FF
FFF007FF
FFF007FF
FFF007FF
FFF007FF
FFF007FF
FFF007FF
FFF007FF
FFF007FF
FFF007FF
FFF007FF
FFF007FF
FFF00FFF
FFF81FFF
FFFFFFFF
FFFFFFFF
7FFFFFFF
7FFFFFFF
7FFFFFFE
3FFFFFFC
1FFFFFF8
0FFFFFF0
01FFFF80
003FFC00
003FFC00
003FFC00
003FFC00
001FFC00
ENDCHAR
STARTCHAR R
ENCODING 82
SWIDTH 743 0
DWIDTH 39 0
BBX 32 37 4 0
BITMAP
FFFFFE00
FFFFFFC0
FFFFFFE0
FFFFFFF0
FFFFFFF0
FFFFFFF8
FFFFFFF8
FFFFFFF8
FFFFFFF8
FFE07FF8
FFE07FF8
FFE03FF8
FFE03FF8
FFE03FF8
FFE07FF0
FFE07FF0
FFFFFFE0
FFFFFFF0
FFFFFFFC
FFFFFFFE
FFFFFFFF
FFFFFFFF
FFFFFFFF
FFFFFFFF
FFFFFFFF
FFE00FFF
FFE007FF
FFE007FF
FFE007FF
FFE007FF
FFE007FF
FFE007FF
FFE007FF
FFE007FF
FFE007FF
FFE007FF
FFE007FF
ENDCHAR
STARTCHAR S
ENCODING 83
SWIDTH 650 0
DWIDTH 34 0
BBX 29 37 3 0
BITMAP
03FFFFC0
0FFFFFE0
3FFFFFE0
7FFFFFE0
7FFFFFE0
FFFFFFE0
FFFFFFE0
FFFFFFE0
FFFFFFE0
FFFFFFC0
FFF00000
FFE00000
FFF00000
FFFE0000
FFFFFC00
FFFFFF80
FFFFFFC0
FFFFFFE0
FFFFFFF0
7FFFFFF0
3FFFFFF8
0FFFFFF8
03FFFFF8
0007FFF8
00007FF8
00007FF8
00007FF8
FFFFFFF8
FFFFFFF8
FFFFFFF8
FFFFFFF0
FFFFFFF0
FFFFFFF0
FFFFFFE0
FFFFFFC0
FFFFFF80
FFFFFC00
ENDCHAR
STARTCHAR T
ENCODING 84
SWIDTH 656 0
DWIDTH 34 0
BBX 32 37 1 0
BITMAP
7FFFFFFE
FFFFFFFF
FFFFFFFF
FFFFFFFF
FFFFFFFF
FFFFFFFF
FFFFFFFF
FFFFFFFF
FFFFFFFF
7FFFFFFE
003FFC00
003FFC00
003FFC00
003FFC00
003FFC00
003FFC00
003FFC00
003FFC00
003FFC00
003FFC00
003FFC00
003FFC00
003FFC00
003FFC00
003FFC00
003FFC00
003FFC00
003FFC00
003FFC00
003FFC00
003FFC00
003FFC00
003FFC00
003FFC00
003FFC00
003FFC00
003FFC00
ENDCHAR
STARTCHAR U
ENCODING 85
SWIDTH 746 0
DWIDTH 39 0
BBX 32 38 3 -1
BITMAP
7FF007FF
FFF007FF
FFF007FF
FFF007FF
FFF007FF
FFF007FF
FFF007FF
FFF007FF
FFF007FF
FFF007FF
FFF007FF
FFF007FF
FFF007FF
FFF007FF
FFF007FF
FFF007FF
FFF007FF
FFF007FF
FFF007FF
FFF007FF
FFF007FF
FFF007FF
FFF007FF
FFF007FF
FFF007FF
FFF007FF
FFF007FF
FFF80FFF
FFFFFFFF
FFFFFFFF
7FFFFFFF
7FFFFFFF
7FFFFFFE
3FFFFFFE
1FFFFFFC
0FFFFFF8
03FFFFE0
003FFE00
ENDCHAR
STARTCHAR V
ENCODING 86
SWIDTH 730 0
DWIDTH 38 0
BBX 32 37 3 0
BITMAP
FFF007FF
FFF00FFF
FFF00FFF
FFF00FFF
FFF00FFF
FFF00FFF
FFF00FFF
FFF00FFF
FFF00FFF
FFF00FFF
FFF00FFF
FFF00FFF
FFF00FFF
FFF00FFF
FFF00FFF
FFF00FFF
FFF00FFF
FFF00FFF
FFF80FFF
FFF81FFF
7FF81FFE
7FFC1FFE
7FFC3FFE
3FFC3FFC
3FFE3FFC
1FFE7FF8
1FFFFFF8
1FFFFFF8
0FFFFFF0
0FFFFFF0
07FFFFE0
07FFFFE0
07FFFFE0
03FFFFC0
03FFFFC0
01FFFF80
01FFFF80
ENDCHAR
STARTCHAR W
ENCODING 87
SWIDTH 831 0
DWIDTH 43 0
BBX 37 37 3 0
BITMAP
FFE0003FF8
FFF0003FF8
FFF0003FF8
FFF0003FF8
FFF0003FF8
FFF0003FF8
FFF0003FF8
FFF0003FF8
FFF0003FF8
FFF0003FF8
FFF0003FF8
FFF0003FF8
FFF0FC3FF8
FFF1FC3FF8
FFF1FE3FF8
FFF3FE3FF8
FFF3FF3FF8
FFF7FF3FF8
FFF7FFBFF8
FFFFFFBFF8
FFFFFFFFF8
FFFFFFFFF8
FFFFFFFFF8
FFFFFFFFF8
FFFFFFFFF8
FFFFFFFFF8
7FFFCFFFF8
7FFF8FFFF0
7FFF8FFFF0
3FFF87FFF0
3FFF07FFE0
3FFF07FFE0
1FFF07FFE0
1FFF03FFC0
1FFE03FFC0
0FFE03FF80
07FC01FF80
ENDCHAR
STARTCHAR X
ENCODING 88
SWIDTH 737 0
DWIDTH 38 0
BBX 32 37 3 0
BITMAP
7FE007FF
FFF007FF
FFF007FF
FFF007FF
FFF007FF
FFF007FF
FFF00FFF
FFF00FFF
FFF80FFF
7FFC1FFF
7FFC3FFE
7FFE7FFE
3FFFFFFC
1FFFFFF8
0FFFFFF8
0FFFFFF0
07FFFFE0
03FFFFC0
03FFFFC0
07FFFFE0
0FFFFFF0
0FFFFFF8
1FFFFFF8
3FFFFFFC
7FFE3FFE
7FFC3FFE
FFF81FFF
FFF80FFF
FFF00FFF
FFF007FF
FFF007FF
FFF007FF
FFF007FF
FFF007FF
FFF007FF
FFF007FF
7FE007FF
ENDCHAR
STARTCHAR Y
ENCODING 89
SWIDTH 705 0
DWIDTH 37 0
BBX 32 37 2 0
BITMAP
7FF007FF
FFF007FF
FFF007FF
FFF007FF
FFF007FF
FFF007FF
FFF007FF
FFF007FF
FFF007FF
FFF007FF
FFF007FF
FFF007FF
FFF80FFF
FFF80FFF
7FFC1FFF
7FFE3FFF
7FFE3FFE
3FFFFFFE
1FFFFFFC
1FFFFFF8
0FFFFFF8
07FFFFF0
03FFFFE0
03FFFFC0
01FFFFC0
00FFFF80
007FFF00
007FFE00
003FFE00
003FFC00
003FFC00
003FFC00
003FFC00
003FFC00
003FFC00
003FFC00
001FFC00
ENDCHAR
STARTCHAR Z
ENCODING 90
SWIDTH 660 0
DWIDTH 34 0
BBX 30 37 2 0
BITMAP
3FFFFFF8
7FFFFFF8
7FFFFFF8
7FFFFFF8
7FFFFFF8
7FFFFFF8
7FFFFFF8
7FFFFFF8
7FFFFFF8
3FFFFFF8
0003FFF8
0007FFF8
000FFFF0
001FFFE0
001FFFC0
003FFF80
007FFF00
00FFFF00
01FFFE00
03FFFC00
03FFF800
07FFF000
0FFFE000
1FFFE000
3FFFC000
7FFF8000
7FFF0000
FFFFFFFC
FFFFFFFC
FFFFFFFC
FFFFFFFC
FFFFFFFC
FFFFFFFC
FFFFFFFC
FFFFFFFC
FFFFFFFC
7FFFFFFC
ENDCHAR
STARTCHAR bracketleft
ENCODING 91
SWIDTH 429 0
DWIDTH 22 0
BBX 18 46 2 -4
BITMAP
7FFFC0
FFFFC0
FFFFC0
FFFFC0
FFFFC0
FFFFC0
FFFFC0
FFFFC0
FFFFC0
FFFFC0
FFF000
FFF000
FFF000
FFF000
FFF000
FFF000
FFF000
FFF000
FFF000
FFF000
FFF000
FFF000
FFF000
FFF000
FFF000
FFF000
FFF000
FFF000
FFF000
FFF000
FFF000
FFF000
FFF000
FFF000
FFF000
FFF000
FFFFC0
FFFFC0
FFFFC0
FFFFC0
FFFFC0
FFFFC0
FFFFC0
FFFFC0
7FFFC0
7FFFC0
ENDCHAR
STARTCHAR backslash
ENCODING 92
SWIDTH 347 0
DWIDTH 18 0
BBX 18 47 0 -5
BITMAP
7FE000
FFF000
FFF000
7FF000
7FF000
7FF000
7FF000
7FF000
7FF800
7FF800
3FF800
3FF800
3FF800
3FF800
3FF800
3FFC00
3FFC00
1FFC00
1FFC00
1FFC00
1FFC00
1FFC00
1FFE00
1FFE00
0FFE00
0FFE00
0FFE00
0FFE00
0FFE00
0FFF00
0FFF00
07FF00
07FF00
07FF00
07FF00
07FF80
07FF80
03FF80
03FF80
03FF80
03FF80
03FF80
03FFC0
03FFC0
01FFC0
01FFC0
01FFC0
ENDCHAR
STARTCHAR bracketright
ENCODING 93
SWIDTH 429 0
DWIDTH 22 0
BBX 18 46 2 -4
BITMAP
7FFF80
FFFFC0
FFFFC0
FFFFC0
FFFFC0
FFFFC0
FFFFC0
FFFFC0
FFFFC0
7FFFC0
03FFC0
03FFC0
03FFC0
03FFC0
03FFC0
03FFC0
03FFC0
03FFC0
03FFC0
03FFC0
03FFC0
03FFC0
03FFC0
03FFC0
03FFC0
03FFC0
03FFC0
03FFC0
03FFC0
03FFC0
03FFC0
03FFC0
03FFC0
03FFC0
03FFC0
03FFC0
7FFFC0
FFFFC0
FFFFC0
FFFFC0
FFFFC0
FFFFC0
FFFFC0
FFFFC0
FFFFC0
7FFF80
ENDCHAR
STARTCHAR asciicircum
ENCODING 94
SWIDTH 714 0
DWIDTH 37 0
BBX 31 28 2 9
BITMAP
003FF800
007FFE00
00FFFF00
01FFFF00
01FFFF80
03FFFF80
03FFFFC0
03FFFFC0
07FFFFC0
07FFFFE0
07FFFFE0
0FFE7FE0
0FFE7FE0
0FFC7FF0
0FFC3FF0
1FFC3FF0
1FF83FF8
1FF83FF8
3FF81FF8
3FF81FF8
3FF01FFC
3FF00FFC
7FF00FFC
7FF00FFE
7FE00FFE
FFE007FE
FFE007FE
FFC007FE
ENDCHAR
STARTCHAR underscore
ENCODING 95
SWIDTH 734 0
DWIDTH 38 0
BBX 31 11 4 -5
BITMAP
FFFFFFFC
FFFFFFFE
FFFFFFFE
FFFFFFFE
FFFFFFFE
FFFFFFFE
FFFFFFFE
FFFFFFFE
FFFFFFFE
FFFFFFFE
FFFFFFFC
ENDCHAR
STARTCHAR a
ENCODING 97
SWIDTH 730 0
DWIDTH 38 0
BBX 32 37 3 0
BITMAP
01FFFF80
03FFFFC0
03FFFFC0
03FFFFC0
07FFFFE0
07FFFFE0
0FFFFFE0
0FFFFFF0
0FFFFFF0
1FFFFFF8
1FFC7FF8
1FFC3FF8
3FFC3FFC
3FF83FFC
7FF81FFE
7FF81FFE
7FF01FFE
FFF01FFF
FFF00FFF
FFFFFFFF
FFFFFFFF
FFFFFFFF
FFFFFFFF
FFFFFFFF
FFFFFFFF
FFFFFFFF
FFFFFFFF
FFFFFFFF
FFE00FFF
FFE00FFF
FFE00FFF
FFE00FFF
FFE00FFF
FFE00FFF
FFE00FFF
FFE00FFF
FFE007FF
ENDCHAR
STARTCHAR b
ENCODING 98
SWIDTH 725 0
DWIDTH 38 0
BBX 32 37 4 0
BITMAP
FFFFFE00
FFFFFF80
FFFFFFC0
FFFFFFE0
FFFFFFE0
FFFFFFF0
FFFFFFF0
FFFFFFF0
FFFFFFF0
FFE07FF0
FFE03FF0
FFE03FF0
FFE03FF0
FFE07FE0
FFFFFFE0
FFFFFF80
FFFFFFF0
FFFFFFFC
FFFFFFFC
FFFFFFFE
FFFFFFFE
FFFFFFFE
FFE00FFE
FFE00FFF
FFE00FFF
FFE00FFF
FFE00FFF
FFE00FFF
FFFFFFFF
FFFFFFFE
FFFFFFFE
FFFFFFFE
FFFFFFFE
FFFFFFFC
FFFFFFF8
FFFFFFF0
FFFFFFC0
ENDCHAR
STARTCHAR c
ENCODING 99
SWIDTH 628 0
DWIDTH 33 0
BBX 27 37 3 0
BITMAP
00FFFFE0
07FFFFE0
1FFFFFE0
3FFFFFE0
7FFFFFE0
7FFFFFE0
7FFFFFE0
FFFFFFE0
FFFFFFE0
FFFFFFE0
FFF80000
FFF00000
FFF00000
FFF00000
FFF00000
FFF00000
FFF00000
FFF00000
FFF00000
FFF00000
FFF00000
FFF00000
FFF00000
FFF00000
FFF00000
FFF00000
FFF80000
FFFFFFE0
FFFFFFE0
FFFFFFE0
7FFFFFE0
7FFFFFE0
7FFFFFE0
3FFFFFE0
1FFFFFE0
07FFFFE0
00FFFFE0
ENDCHAR
STARTCHAR d
ENCODING 100
SWIDTH 746 0
DWIDTH 39 0
BBX 32 37 4 0
BITMAP
FFFFFF00
FFFFFFE0
FFFFFFF8
FFFFFFFC
FFFFFFFC
FFFFFFFE
FFFFFFFE
FFFFFFFE
FFFFFFFF
FFFFFFFF
FFE01FFF
FFE00FFF
FFE00FFF
FFE00FFF
FFE00FFF
FFE00FFF
FFE00FFF
FFE00FFF
FFE00FFF
FFE00FFF
FFE00FFF
FFE00FFF
FFE00FFF
FFE00FFF
FFE00FFF
FFE00FFF
FFE01FFF
FFFFFFFF
FFFFFFFF
FFFFFFFE
FFFFFFFE
FFFFFFFE
FFFFFFFC
FFFFFFFC
FFFFFFF8
FFFFFFE0
FFFFFF00
ENDCHAR
STARTCHAR e
ENCODING 101
SWIDTH 654 0
DWIDTH 34 0
BBX 27 37 4 0
BITMAP
FFFFFFE0
FFFFFFE0
FFFFFFE0
FFFFFFE0
FFFFFFE0
FFFFFFE0
FFFFFFE0
FFFFFFE0
FFFFFFE0
FFFFFFE0
FFE00000
FFE00000
FFE00000
FFE00000
FFFFFE00
FFFFFE00
FFFFFE00
FFFFFE00
FFFFFE00
FFFFFE00
FFFFFE00
FFFFFE00
FFFFFE00
FFE00000
FFE00000
FFE00000
FFE00000
FFFFFFE0
FFFFFFE0
FFFFFFE0
FFFFFFE0
FFFFFFE0
FFFFFFE0
FFFFFFE0
FFFFFFE0
FFFFFFE0
FFFFFFE0
ENDCHAR
STARTCHAR f
ENCODING 102
SWIDTH 618 0
DWIDTH 32 0
BBX 27 37 4 0
BITMAP
FFFFFFC0
FFFFFFE0
FFFFFFE0
FFFFFFE0
FFFFFFE0
FFFFFFE0
FFFFFFE0
FFFFFFE0
FFFFFFE0
FFFFFFC0
FFE00000
FFE00000
FFE00000
FFE00000
FFE00000
FFFFFC00
FFFFFC00
FFFFFC00
FFFFFC00
FFFFFC00
FFFFFC00
FFFFFC00
FFFFFC00
FFFFFC00
FFFFFC00
FFE00000
FFE00000
FFE00000
FFE00000
FFE00000
FFE00000
FFE00000
FFE00000
FFE00000
FFE00000
FFE00000
FFE00000
ENDCHAR
STARTCHAR g
ENCODING 103
SWIDTH 708 0
DWIDTH 37 0
BBX 31 37 3 0
BITMAP
00FFFFE0
07FFFFF0
1FFFFFF0
3FFFFFF0
7FFFFFF0
7FFFFFF0
7FFFFFF0
FFFFFFF0
FFFFFFF0
FFFFFFE0
FFF80000
FFF00000
FFF00000
FFF00000
FFF00000
FFF00000
FFF00000
FFF007FC
FFF01FFE
FFF01FFE
FFF01FFE
FFF01FFE
FFF01FFE
FFF01FFE
FFF01FFE
FFF01FFE
FFF81FFE
FFFFFFFE
FFFFFFFE
FFFFFFFE
7FFFFFFE
7FFFFFFE
7FFFFFFE
3FFFFFFE
1FFFFFFE
07FFFFFE
00FFFFFE
ENDCHAR
STARTCHAR h
ENCODING 104
SWIDTH 759 0
DWIDTH 39 0
BBX 32 37 4 0
BITMAP
FFE00FFE
FFE00FFF
FFE00FFF
FFE00FFF
FFE00FFF
FFE00FFF
FFE00FFF
FFE00FFF
FFE00FFF
FFE00FFF
FFE00FFF
FFE00FFF
FFE00FFF
FFFFFFFF
FFFFFFFF
FFFFFFFF
FFFFFFFF
FFFFFFFF
FFFFFFFF
FFFFFFFF
FFFFFFFF
FFFFFFFF
FFFFFFFF
FFFFFFFF
FFE00FFF
FFE00FFF
FFE00FFF
FFE00FFF
FFE00FFF
FFE00FFF
FFE00FFF
FFE00FFF
FFE00FFF
FFE00FFF
FFE00FFF
FFE00FFF
FFE00FFE
ENDCHAR
STARTCHAR i
ENCODING 105
SWIDTH 605 0
DWIDTH 31 0
BBX 26 37 3 0
BITMAP
FFFFFF80
FFFFFFC0
FFFFFFC0
FFFFFFC0
FFFFFFC0
FFFFFFC0
FFFFFFC0
FFFFFFC0
FFFFFFC0
FFFFFF80
01FFE000
01FFE000
01FFE000
01FFE000
01FFE000
01FFE000
01FFE000
01FFE000
01FFE000
01FFE000
01FFE000
01FFE000
01FFE000
01FFE000
01FFE000
01FFE000
01FFE000
FFFFFF80
FFFFFFC0
FFFFFFC0
FFFFFFC0
FFFFFFC0
FFFFFFC0
FFFFFFC0
FFFFFFC0
FFFFFFC0
FFFFFF80
ENDCHAR
STARTCHAR j
ENCODING 106
SWIDTH 688 0
DWIDTH 36 0
BBX 30 38 2 -1
BITMAP
00001FFC
00001FFC
00001FFC
00001FFC
00001FFC
00001FFC
00001FFC
00001FFC
00001FFC
00001FFC
00001FFC
00001FFC
00001FFC
00001FFC
00001FFC
00001FFC
00001FFC
7FC01FFC
FFE01FFC
FFE01FFC
FFE01FFC
FFE01FFC
FFE01FFC
FFE01FFC
FFE01FFC
FFE01FFC
FFF03FFC
FFF03FFC
FFFFFFFC
FFFFFFFC
FFFFFFFC
7FFFFFFC
7FFFFFF8
3FFFFFF8
3FFFFFF0
0FFFFFE0
03FFFF80
007FF800
ENDCHAR
STARTCHAR k
ENCODING 107
SWIDTH 746 0
DWIDTH 39 0
BBX 32 37 4 0
BITMAP
FFE00FFE
FFE01FFE
FFE03FFC
FFE03FFC
FFE03FF8
FFE07FF8
FFE07FF8
FFE0FFF0
FFE0FFF0
FFE1FFE0
FFE1FFE0
FFE1FFC0
FFE3FFC0
FFE3FFC0
FFFFFFF0
FFFFFFFC
FFFFFFFC
FFFFFFFE
FFFFFFFE
FFFFFFFF
FFFFFFFF
FFFFFFFF
FFFFFFFF
FFFFFFFF
FFE00FFF
FFE00FFF
FFE00FFF
FFE00FFF
FFE00FFF
FFE00FFF
FFE00FFF
FFE00FFF
FFE00FFF
FFE00FFF
FFE00FFF
FFE00FFF
FFE00FFE
ENDCHAR
STARTCHAR l
ENCODING 108
SWIDTH 695 0
DWIDTH 36 0
BBX 30 37 4 0
BITMAP
FFE00000
FFE00000
FFE00000
FFE00000
FFE00000
FFE00000
FFE00000
FFE00000
FFE00000
FFE00000
FFE00000
FFE00000
FFE00000
FFE00000
FFE00000
FFE00000
FFE00000
FFE01FF8
FFE01FFC
FFE01FFC
FFE01FFC
FFE01FFC
FFE01FFC
FFE01FFC
FFE01FFC
FFE01FFC
FFE01FFC
FFFFFFFC
FFFFFFFC
FFFFFFFC
FFFFFFFC
FFFFFFFC
FFFFFFFC
FFFFFFFC
FFFFFFFC
FFFFFFFC
FFFFFFF8
ENDCHAR
STARTCHAR m
ENCODING 109
SWIDTH 849 0
DWIDTH 44 0
BBX 37 37 4 0
BITMAP
FFE0007FF0
FFF000FFF8
FFF801FFF8
FFF801FFF8
FFFC03FFF8
FFFE07FFF8
FFFE07FFF8
FFFF0FFFF8
FFFF0FFFF8
FFFF9FFFF8
FFFFFFFFF8
FFFFFFFFF8
FFFFFFFFF8
FFFFFFFFF8
FFFFFFFFF8
FFFFFFFFF8
FFFFFFFFF8
FFEFFF7FF8
FFEFFF7FF8
FFE7FE7FF8
FFE7FE7FF8
FFE3FC7FF8
FFE3FC7FF8
FFE1F87FF8
FFE0007FF8
FFE0007FF8
FFE0007FF8
FFE0007FF8
FFE0007FF8
FFE0007FF8
FFE0007FF8
FFE0007FF8
FFE0007FF8
FFE0007FF8
FFE0007FF8
FFE0007FF8
FFE0007FF0
ENDCHAR
STARTCHAR n
ENCODING 110
SWIDTH 753 0
DWIDTH 39 0
BBX 32 37 4 0
BITMAP
FF800FFE
FFC00FFF
FFE00FFF
FFF00FFF
FFF80FFF
FFF80FFF
FFFC0FFF
FFFE0FFF
FFFF0FFF
FFFF8FFF
FFFFCFFF
FFFFEFFF
FFFFFFFF
FFFFFFFF
FFFFFFFF
FFFFFFFF
FFFFFFFF
FFFFFFFF
FFFFFFFF
FFEFFFFF
FFE7FFFF
FFE3FFFF
FFE1FFFF
FFE1FFFF
FFE0FFFF
FFE07FFF
FFE03FFF
FFE01FFF
FFE00FFF
FFE00FFF
FFE00FFF
FFE00FFF
FFE00FFF
FFE00FFF
FFE00FFF
FFE00FFF
FFE00FFE
ENDCHAR
STARTCHAR o
ENCODING 111
SWIDTH 737 0
DWIDTH 38 0
BBX 32 39 3 -1
BITMAP
003FFE00
03FFFFC0
0FFFFFF0
1FFFFFFC
3FFFFFFE
7FFFFFFE
7FFFFFFF
FFFFFFFF
FFFFFFFF
FFFFFFFF
FFF81FFF
FFF00FFF
FFF007FF
FFF007FF
FFF007FF
FFF007FF
FFF007FF
FFF007FF
FFF007FF
FFF007FF
FFF007FF
FFF007FF
FFF007FF
FFF007FF
FFF007FF
FFF007FF
FFF007FF
FFF00FFF
FFF81FFF
FFFFFFFF
FFFFFFFF
FFFFFFFF
7FFFFFFF
7FFFFFFE
3FFFFFFE
1FFFFFFC
0FFFFFF8
03FFFFE0
003FFE00
ENDCHAR
STARTCHAR p
ENCODING 112
SWIDTH 682 0
DWIDTH 35 0
BBX 30 37 4 0
BITMAP
FFFFFE00
FFFFFF80
FFFFFFE0
FFFFFFF0
FFFFFFF0
FFFFFFF8
FFFFFFF8
FFFFFFF8
FFFFFFFC
FFFFFFFC
FFE03FFC
FFE03FFC
FFE03FFC
FFE03FFC
FFE03FFC
FFE03FFC
FFE03FFC
FFFFFFFC
FFFFFFF8
FFFFFFF8
FFFFFFF8
FFFFFFF0
FFFFFFF0
FFFFFFE0
FFFFFF80
FFFFFE00
FFE00000
FFE00000
FFE00000
FFE00000
FFE00000
FFE00000
FFE00000
FFE00000
FFE00000
FFE00000
FFE00000
ENDCHAR
STARTCHAR q
ENCODING 113
SWIDTH 737 0
DWIDTH 38 0
BBX 32 43 3 -5
BITMAP
003FFE00
03FFFFC0
0FFFFFF0
1FFFFFFC
3FFFFFFE
7FFFFFFE
7FFFFFFF
FFFFFFFF
FFFFFFFF
FFFFFFFF
FFF81FFF
FFF00FFF
FFF007FF
FFF007FF
FFF007FF
FFF007FF
FFF007FF
FFF007FF
FFF007FF
FFF007FF
FFF007FF
FFF007FF
FFF007FF
FFF007FF
FFF007FF
FFF007FF
FFF007FF
FFF00FFF
FFF81FFF
FFFFFFFF
FFFFFFFF
7FFFFFFF
7FFFFFFF
7FFFFFFE
3FFFFFFC
1FFFFFF8
0FFFFFF0
01FFFF80
003FFC00
003FFC00
003FFC00
003FFC00
001FFC00
ENDCHAR
STARTCHAR r
ENCODING 114
SWIDTH 743 0
DWIDTH 39 0
BBX 32 37 4 0
BITMAP
FFFFFE00
FFFFFFC0
FFFFFFE0
FFFFFFF0
FFFFFFF0
FFFFFFF8
FFFFFFF8
FFFFFFF8
FFFFFFF8
FFE07FF8
FFE07FF8
FFE03FF8
FFE03FF8
FFE03FF8
FFE07FF0
FFE07FF0
FFFFFFE0
FFFFFFF0
FFFFFFFC
FFFFFFFE
FFFFFFFF
FFFFFFFF
FFFFFFFF
FFFFFFFF
FFFFFFFF
FFE00FFF
FFE007FF
FFE007FF
FFE007FF
FFE007FF
FFE007FF
FFE007FF
FFE007FF
FFE007FF
FFE007FF
FFE007FF
FFE007FF
ENDCHAR
STARTCHAR s
ENCODING 115
SWIDTH 650 0
DWIDTH 34 0
BBX 29 37 3 0
BITMAP
03FFFFC0
0FFFFFE0
3FFFFFE0
7FFFFFE0
7FFFFFE0
FFFFFFE0
FFFFFFE0
FFFFFFE0
FFFFFFE0
FFFFFFC0
FFF00000
FFE00000
FFF00000
FFFE0000
FFFFFC00
FFFFFF80
FFFFFFC0
FFFFFFE0
FFFFFFF0
7FFFFFF0
3FFFFFF8
0FFFFFF8
03FFFFF8
0007FFF8
00007FF8
00007FF8
00007FF8
FFFFFFF8
FFFFFFF8
FFFFFFF8
FFFFFFF0
FFFFFFF0
FFFFFFF0
FFFFFFE0
FFFFFFC0
FFFFFF80
FFFFFC00
ENDCHAR
STARTCHAR t
ENCODING 116
SWIDTH 656 0
DWIDTH 34 0
BBX 32 37 1 0
BITMAP
7FFFFFFE
FFFFFFFF
FFFFFFFF
FFFFFFFF
FFFFFFFF
FFFFFFFF
FFFFFFFF
FFFFFFFF
FFFFFFFF
7FFFFFFE
003FFC00
003FFC00
003FFC00
003FFC00
003FFC00
003FFC00
003FFC00
003FFC00
003FFC00
003FFC00
003FFC00
003FFC00
003FFC00
003FFC00
003FFC00
003FFC00
003FFC00
003FFC00
003FFC00
003FFC00
003FFC00
003FFC00
003FFC00
003FFC00
003FFC00
003FFC00
003FFC00
ENDCHAR
STARTCHAR u
ENCODING 117
SWIDTH 746 0
DWIDTH 39 0
BBX 32 38 3 -1
BITMAP
7FF007FF
FFF007FF
FFF007FF
FFF007FF
FFF007FF
FFF007FF
FFF007FF
FFF007FF
FFF007FF
FFF007FF
FFF007FF
FFF007FF
FFF007FF
FFF007FF
FFF007FF
FFF007FF
FFF007FF
FFF007FF
FFF007FF
FFF007FF
FFF007FF
FFF007FF
FFF007FF
FFF007FF
FFF007FF
FFF007FF
FFF007FF
FFF80FFF
FFFFFFFF
FFFFFFFF
7FFFFFFF
7FFFFFFF
7FFFFFFE
3FFFFFFE
1FFFFFFC
0FFFFFF8
03FFFFE0
003FFE00
ENDCHAR
STARTCHAR v
ENCODING 118
SWIDTH 730 0
DWIDTH 38 0
BBX 32 37 3 0
BITMAP
FFF007FF
FFF00FFF
FFF00FFF
FFF00FFF
FFF00FFF
FFF00FFF
FFF00FFF
FFF00FFF
FFF00FFF
FFF00FFF
FFF00FFF
FFF00FFF
FFF00FFF
FFF00FFF
FFF00FFF
FFF00FFF
FFF00FFF
FFF00FFF
FFF80FFF
FFF81FFF
7FF81FFE
7FFC1FFE
7FFC3FFE
3FFC3FFC
3FFE3FFC
1FFE7FF8
1FFFFFF8
1FFFFFF8
0FFFFFF0
0FFFFFF0
07FFFFE0
07FFFFE0
07FFFFE0
03FFFFC0
03FFFFC0
01FFFF80
01FFFF80
ENDCHAR
STARTCHAR w
ENCODING 119
SWIDTH 831 0
DWIDTH 43 0
BBX 37 37 3 0
BITMAP
FFE0003FF8
FFF0003FF8
FFF0003FF8
FFF0003FF8
FFF0003FF8
FFF0003FF8
FFF0003FF8
FFF0003FF8
FFF0003FF8
FFF0003FF8
FFF0003FF8
FFF0003FF8
FFF0FC3FF8
FFF1FC3FF8
FFF1FE3FF8
FFF3FE3FF8
FFF3FF3FF8
FFF7FF3FF8
FFF7FFBFF8
FFFFFFBFF8
FFFFFFFFF8
FFFFFFFFF8
FFFFFFFFF8
FFFFFFFFF8
FFFFFFFFF8
FFFFFFFFF8
7FFFCFFFF8
7FFF8FFFF0
7FFF8FFFF0
3FFF87FFF0
3FFF07FFE0
3FFF07FFE0
1FFF07FFE0
1FFF03FFC0
1FFE03FFC0
0FFE03FF80
07FC01FF80
ENDCHAR
STARTCHAR x
ENCODING 120
SWIDTH 737 0
DWIDTH 38 0
BBX 32 37 3 0
BITMAP
7FE007FF
FFF007FF
FFF007FF
FFF007FF
FFF007FF
FFF007FF
FFF00FFF
FFF00FFF
FFF80FFF
7FFC1FFF
7FFC3FFE
7FFE7FFE
3FFFFFFC
1FFFFFF8
0FFFFFF8
0FFFFFF0
07FFFFE0
03FFFFC0
03FFFFC0
07FFFFE0
0FFFFFF0
0FFFFFF8
1FFFFFF8
3FFFFFFC
7FFE3FFE
7FFC3FFE
FFF81FFF
FFF80FFF
FFF00FFF
FFF007FF
FFF007FF
FFF007FF
FFF007FF
FFF007FF
FFF007FF
FFF007FF
7FE007FF
ENDCHAR
STARTCHAR y
ENCODING 121
SWIDTH 705 0
DWIDTH 37 0
BBX 32 37 2 0
BITMAP
7FF007FF
FFF007FF
FFF007FF
FFF007FF
FFF007FF
FFF007FF
FFF007FF
FFF007FF
FFF007FF
FFF007FF
FFF007FF
FFF007FF
FFF80FFF
FFF80FFF
7FFC1FFF
7FFE3FFF
7FFE3FFE
3FFFFFFE
1FFFFFFC
1FFFFFF8
0FFFFFF8
07FFFFF0
03FFFFE0
03FFFFC0
01FFFFC0
00FFFF80
007FFF00
007FFE00
003FFE00
003FFC00
003FFC00
003FFC00
003FFC00
003FFC00
003FFC00
003FFC00
001FFC00
ENDCHAR
STARTCHAR z
ENCODING 122
SWIDTH 660 0
DWIDTH 34 0
BBX 30 37 2 0
BITMAP
3FFFFFF8
7FFFFFF8
7FFFFFF8
7FFFFFF8
7FFFFFF8
7FFFFFF8
7FFFFFF8
7FFFFFF8
7FFFFFF8
3FFFFFF8
0003FFF8
0007FFF8
000FFFF0
001FFFE0
001FFFC0
003FFF80
007FFF00
00FFFF00
01FFFE00
03FFFC00
03FFF800
07FFF000
0FFFE000
1FFFE000
3FFFC000
7FFF8000
7FFF0000
FFFFFFFC
FFFFFFFC
FFFFFFFC
FFFFFFFC
FFFFFFFC
FFFFFFFC
FFFFFFFC
FFFFFFFC
FFFFFFFC
7FFFFFFC
ENDCHAR
STARTCHAR braceleft
ENCODING 123
SWIDTH 455 0
DWIDTH 24 0
BBX 20 46 1 -4
BITMAP
001FF0
00FFF0
01FFF0
03FFF0
07FFF0
0FFFF0
0FFFF0
0FFFF0
0FFFF0
1FFFF0
1FFF00
1FFE00
1FFE00
1FFE00
1FFE00
1FFE00
1FFE00
1FFE00
3FFE00
7FFE00
FFFE00
FFFC00
FFE000
FFE000
FFFC00
FFFE00
7FFE00
7FFE00
1FFE00
1FFE00
1FFE00
1FFE00
1FFE00
1FFE00
1FFE00
1FFF00
1FFFF0
0FFFF0
0FFFF0
0FFFF0
0FFFF0
07FFF0
03FFF0
01FFF0
00FFF0
001FF0
ENDCHAR
STARTCHAR bar
ENCODING 124
SWIDTH 347 0
DWIDTH 18 0
BBX 12 47 3 -5
BITMAP
7FE0
FFF0
FFF0
FFF0
FFF0
FFF0
FFF0
FFF0
FFF0
FFF0
FFF0
FFF0
FFF0
FFF0
FFF0
FFF0
FFF0
FFF0
FFF0
FFF0
FFF0
FFF0
FFF0
FFF0
FFF0
FFF0
FFF0
FFF0
FFF0
FFF0
FFF0
FFF0
FFF0
FFF0
FFF0
FFF0
FFF0
FFF0
FFF0
FFF0
FFF0
FFF0
FFF0
FFF0
FFF0
FFF0
7FE0
ENDCHAR
STARTCHAR braceright
ENCODING 125
SWIDTH 455 0
DWIDTH 24 0
BBX 21 46 2 -4
BITMAP
7FC000
FFF800
FFFC00
FFFE00
FFFF00
FFFF00
FFFF80
FFFF80
FFFF80
7FFF80
07FF80
07FF80
07FF80
07FF80
07FF80
07FF80
07FF80
07FF80
07FFE0
07FFF0
03FFF0
03FFF8
003FF8
003FF8
01FFF8
03FFF0
07FFF0
07FFE0
07FFC0
07FF80
07FF80
07FF80
07FF80
07FF80
07FF80
07FF80
7FFF80
FFFF80
FFFF80
FFFF80
FFFF00
FFFF00
FFFE00
FFFC00
FFF800
7FC000
ENDCHAR
STARTCHAR asciitilde
ENCODING 126
SWIDTH 734 0
DWIDTH 38 0
BBX 31 12 4 13
BITMAP
01000000
1FFF003C
FFFFFFFE
FFFFFFFE
FFFFFFFE
FFFFFFFE
FFFFFFFE
FFFFFFFE
FFFFFFFE
FFFFFFFC
FE3FFFF8
C0003FC0
ENDCHAR
STARTCHAR uniF6C3
ENCODING 63171
SWIDTH 500 0
DWIDTH 26 0
BBX 12 17 7 -19
BITMAP
FFF0
FFF0
FFF0
FFF0
FFF0
FFF0
FFF0
FFF0
FFF0
FFF0
03F0
03F0
7FF0
7FE0
7FE0
7FC0
7F00
ENDCHAR
ENDFONT
